<svg width="14.000000" height="15.000000" viewBox="0 0 14 15" fill="none" xmlns="http://www.w3.org/2000/svg" xmlns:xlink="http://www.w3.org/1999/xlink">
	<desc>
			Created with Pixso.
	</desc>
	<defs/>
	<path id="Vector 290" d="M13.5 7.5L7.74 13.25C6.94 14.05 5.86 14.5 4.74 14.5C2.39 14.5 0.5 12.6 0.5 10.25C0.5 9.13 0.94 8.05 1.74 7.25L7.67 1.32C8.2 0.79 8.92 0.5 9.67 0.5C11.23 0.5 12.5 1.76 12.5 3.32C12.5 4.07 12.2 4.79 11.67 5.32L5.91 11.08C5.64 11.35 5.28 11.5 4.91 11.5C4.13 11.5 3.5 10.86 3.5 10.08C3.5 9.71 3.64 9.35 3.91 9.08L9.5 " stroke="#000000" stroke-opacity="1.000000" stroke-width="1.000000"/>
</svg>
